<svg width="25" height="24" viewBox="0 0 25 24" fill="none" xmlns="http://www.w3.org/2000/svg">
<path d="M5.5 5.5C5.5 5.22386 5.72386 5 6 5H7C7.27614 5 7.5 5.22386 7.5 5.5V7.5C7.5 7.77614 7.72386 8 8 8H17C17.2761 8 17.5 7.77614 17.5 7.5V5.5C17.5 5.22386 17.7239 5 18 5H19C19.2761 5 19.5 5.22386 19.5 5.5V9.5C19.5 9.77614 19.7239 10 20 10H21C21.2761 10 21.5 9.77614 21.5 9.5V5C21.5 3.9 20.6 3 19.5 3H15.6707C15.4602 3 15.2758 2.86619 15.1819 2.67777C14.6887 1.68764 13.6762 1 12.5 1C11.3238 1 10.3113 1.68764 9.81807 2.67777C9.7242 2.86619 9.53978 3 9.32927 3H5.5C4.4 3 3.5 3.9 3.5 5V19C3.5 20.1 4.4 21 5.5 21H11C11.2761 21 11.5 20.7761 11.5 20.5V19.5C11.5 19.2239 11.2761 19 11 19H6C5.72386 19 5.5 18.7761 5.5 18.5V5.5ZM12.5 3C13.05 3 13.5 3.45 13.5 4C13.5 4.55 13.05 5 12.5 5C11.95 5 11.5 4.55 11.5 4C11.5 3.45 11.95 3 12.5 3Z" fill="#8E8E8E"/>
<path d="M22.2078 12.2078C21.817 11.817 21.1833 11.8173 20.7929 12.2084L16.7159 16.2928C16.326 16.6835 15.6932 16.6843 15.3023 16.2946L13.7071 14.7048C13.3164 14.3153 12.6841 14.3159 12.2941 14.7059L12.2079 14.7921C11.8171 15.1829 11.8174 15.8167 12.2087 16.2071L15.3024 19.294C15.6932 19.6839 16.3262 19.6834 16.7163 19.2927L22.2939 13.7071C22.684 13.3165 22.6837 12.6837 22.2934 12.2934L22.2078 12.2078Z" fill="#8E8E8E"/>
</svg>
