<svg width="25" height="24" viewBox="0 0 25 24" fill="none" xmlns="http://www.w3.org/2000/svg">
<path d="M9.5 7L13.5 7" stroke="#8E8E8E" stroke-width="2" stroke-linecap="round"/>
<path d="M9.5 15L12.5 15" stroke="#8E8E8E" stroke-width="2" stroke-linecap="round"/>
<path d="M9.5 11L15.5 11" stroke="#8E8E8E" stroke-width="2" stroke-linecap="round"/>
<path d="M19.5 11V9C19.5 6.17157 19.5 4.75736 18.6213 3.87868C17.7426 3 16.3284 3 13.5 3H11.5C8.67157 3 7.25736 3 6.37868 3.87868C5.5 4.75736 5.5 6.17157 5.5 9V15C5.5 17.8284 5.5 19.2426 6.37868 20.1213C7.25736 21 8.67157 21 11.5 21H12.5" stroke="#8E8E8E" stroke-width="2"/>
<circle cx="18" cy="17.5" r="2.5" stroke="#8E8E8E" stroke-width="2"/>
<path d="M21.5 21L20 19.5" stroke="#8E8E8E" stroke-width="2" stroke-linecap="round"/>
</svg>
