<svg width="21" height="17" viewBox="0 0 21 17" fill="none" xmlns="http://www.w3.org/2000/svg">
<path d="M20.5 4C20.5 2.07 16.02 0.5 10.5 0.5C4.98 0.5 0.5 2.07 0.5 4C0.5 5.81 4.45 7.31 9.5 7.48V11.5H7.85C7.03 11.5 6.3 12 5.99 12.76L4.5 16.5H6.5L7.7 13.5H13.3L14.5 16.5H16.5L15 12.76C14.7 12 13.96 11.5 13.15 11.5H11.5V7.48C16.55 7.31 20.5 5.81 20.5 4ZM10.5 2.5C14.55 2.5 17.24 3.36 18.22 4C17.24 4.64 14.55 5.5 10.5 5.5C6.45 5.5 3.76 4.64 2.78 4C3.76 3.36 6.45 2.5 10.5 2.5Z" fill="#8E8E8E"/>
</svg>
